<mxfile host="app.diagrams.net" agent="Mozilla/5.0 (Windows NT 10.0; Win64; x64) AppleWebKit/537.36 (KHTML, like Gecko) Chrome/139.0.0.0 Safari/537.36" version="28.1.0">
  <diagram name="Page-1" id="_rwPM-7uunxRJzQnY0g6">
    <mxGraphModel dx="2276" dy="763" grid="1" gridSize="10" guides="1" tooltips="1" connect="1" arrows="1" fold="1" page="1" pageScale="1" pageWidth="850" pageHeight="1100" math="0" shadow="0">
      <root>
        <mxCell id="0" />
        <mxCell id="1" parent="0" />
        <mxCell id="rV_EDdplLf0STSpB1xcs-41" value="" style="endArrow=blockThin;html=1;bendable=1;rounded=0;endFill=1;endSize=4;edgeStyle=entityRelationEdgeStyle;startArrow=blockThin;startFill=1;startSize=4;jumpStyle=none;jumpSize=0;targetPerimeterSpacing=15;strokeWidth=1.5;strokeColor=light-dark(#000000,#FEFEFE);exitX=0.196;exitY=0.069;exitDx=0;exitDy=0;exitPerimeter=0;" parent="1" edge="1">
          <mxGeometry width="50" height="50" relative="1" as="geometry">
            <mxPoint x="-190" y="597.73" as="sourcePoint" />
            <mxPoint x="20" y="597.5" as="targetPoint" />
          </mxGeometry>
        </mxCell>
        <mxCell id="rV_EDdplLf0STSpB1xcs-14" value="" style="endArrow=blockThin;html=1;bendable=1;rounded=0;endFill=1;endSize=4;edgeStyle=entityRelationEdgeStyle;startArrow=blockThin;startFill=1;startSize=4;jumpStyle=none;jumpSize=0;targetPerimeterSpacing=15;strokeWidth=1.5;strokeColor=light-dark(#000000,#FEFEFE);exitX=0.196;exitY=0.069;exitDx=0;exitDy=0;exitPerimeter=0;" parent="1" source="rV_EDdplLf0STSpB1xcs-17" edge="1">
          <mxGeometry width="50" height="50" relative="1" as="geometry">
            <mxPoint x="150" y="590.05" as="sourcePoint" />
            <mxPoint x="350" y="589.77" as="targetPoint" />
          </mxGeometry>
        </mxCell>
        <mxCell id="rV_EDdplLf0STSpB1xcs-11" value="" style="endArrow=blockThin;html=1;bendable=1;rounded=0;endFill=1;endSize=4;edgeStyle=entityRelationEdgeStyle;startArrow=blockThin;startFill=1;startSize=4;jumpStyle=none;jumpSize=0;targetPerimeterSpacing=15;strokeWidth=1.5;strokeColor=light-dark(#000000,#FEFEFE);" parent="1" edge="1">
          <mxGeometry width="50" height="50" relative="1" as="geometry">
            <mxPoint x="150" y="465" as="sourcePoint" />
            <mxPoint x="350" y="464.72" as="targetPoint" />
          </mxGeometry>
        </mxCell>
        <mxCell id="rV_EDdplLf0STSpB1xcs-6" value="" style="rounded=1;whiteSpace=wrap;html=1;strokeWidth=2;fillWeight=4;hachureGap=8;hachureAngle=45;fillColor=light-dark(#1BA1E2,#6600CC);sketch=1;rotation=90;" parent="1" vertex="1">
          <mxGeometry x="282.5" y="460" width="255" height="145" as="geometry" />
        </mxCell>
        <mxCell id="rV_EDdplLf0STSpB1xcs-5" value="&lt;font style=&quot;font-size: 9px;&quot;&gt;RED Boundary Router&lt;/font&gt;&lt;div&gt;&lt;font style=&quot;font-size: 9px;&quot;&gt;HN: RED-SCR&lt;/font&gt;&lt;/div&gt;&lt;div&gt;&lt;font style=&quot;font-size: 9px;&quot;&gt;IP: 172.16.120.1&lt;/font&gt;&lt;/div&gt;&lt;div&gt;&lt;font style=&quot;font-size: 9px;&quot;&gt;Ports: 22&lt;/font&gt;&lt;/div&gt;&lt;div&gt;&lt;font style=&quot;font-size: 9px;&quot;&gt;User: vyos&lt;/font&gt;&lt;/div&gt;&lt;div&gt;&lt;font style=&quot;font-size: 9px;&quot;&gt;Pass: password&lt;/font&gt;&lt;/div&gt;" style="text;html=1;align=center;verticalAlign=middle;whiteSpace=wrap;rounded=0;" parent="1" vertex="1">
          <mxGeometry x="360" y="455" width="100" height="140" as="geometry" />
        </mxCell>
        <mxCell id="rV_EDdplLf0STSpB1xcs-7" value="e1" style="shape=ext;double=1;whiteSpace=wrap;html=1;aspect=fixed;" parent="1" vertex="1">
          <mxGeometry x="340" y="575" width="30" height="30" as="geometry" />
        </mxCell>
        <mxCell id="rV_EDdplLf0STSpB1xcs-8" value="e2" style="shape=ext;double=1;whiteSpace=wrap;html=1;aspect=fixed;" parent="1" vertex="1">
          <mxGeometry x="395" y="630" width="30" height="30" as="geometry" />
        </mxCell>
        <mxCell id="rV_EDdplLf0STSpB1xcs-9" value="e0" style="shape=ext;double=1;whiteSpace=wrap;html=1;aspect=fixed;" parent="1" vertex="1">
          <mxGeometry x="340" y="450" width="30" height="30" as="geometry" />
        </mxCell>
        <mxCell id="rV_EDdplLf0STSpB1xcs-10" value="l0" style="shape=ext;double=1;whiteSpace=wrap;html=1;aspect=fixed;" parent="1" vertex="1">
          <mxGeometry x="395" y="410" width="30" height="30" as="geometry" />
        </mxCell>
        <mxCell id="rV_EDdplLf0STSpB1xcs-12" value="172.16.120.1/29" style="text;html=1;align=center;verticalAlign=middle;whiteSpace=wrap;rounded=0;" parent="1" vertex="1">
          <mxGeometry x="240" y="450" width="100" height="20" as="geometry" />
        </mxCell>
        <mxCell id="rV_EDdplLf0STSpB1xcs-13" value="Internet" style="text;html=1;align=center;verticalAlign=middle;whiteSpace=wrap;rounded=0;" parent="1" vertex="1">
          <mxGeometry x="290" y="470" width="40" height="10" as="geometry" />
        </mxCell>
        <mxCell id="rV_EDdplLf0STSpB1xcs-15" value="172.16.120.10/29" style="text;html=1;align=center;verticalAlign=middle;whiteSpace=wrap;rounded=0;" parent="1" vertex="1">
          <mxGeometry x="240" y="575" width="100" height="20" as="geometry" />
        </mxCell>
        <mxCell id="rV_EDdplLf0STSpB1xcs-16" value="172.16.120.9/29" style="text;html=1;align=center;verticalAlign=middle;whiteSpace=wrap;rounded=0;" parent="1" vertex="1">
          <mxGeometry x="150" y="595" width="100" height="5" as="geometry" />
        </mxCell>
        <mxCell id="rV_EDdplLf0STSpB1xcs-17" value="" style="rounded=1;whiteSpace=wrap;html=1;strokeWidth=2;fillWeight=4;hachureGap=8;hachureAngle=45;fillColor=light-dark(#1BA1E2,#6600CC);sketch=1;rotation=90;" parent="1" vertex="1">
          <mxGeometry x="-50" y="595" width="255" height="145" as="geometry" />
        </mxCell>
        <mxCell id="rV_EDdplLf0STSpB1xcs-18" value="e0" style="shape=ext;double=1;whiteSpace=wrap;html=1;aspect=fixed;" parent="1" vertex="1">
          <mxGeometry x="120" y="575" width="30" height="30" as="geometry" />
        </mxCell>
        <mxCell id="rV_EDdplLf0STSpB1xcs-19" value="&lt;font style=&quot;font-size: 9px;&quot;&gt;Router&lt;/font&gt;&lt;div&gt;&lt;font style=&quot;font-size: 9px;&quot;&gt;HN: RED-IPS&lt;/font&gt;&lt;/div&gt;&lt;div&gt;&lt;span style=&quot;font-size: 9px; background-color: transparent; color: light-dark(rgb(0, 0, 0), rgb(255, 255, 255));&quot;&gt;Ports: 22&lt;/span&gt;&lt;/div&gt;&lt;div&gt;&lt;font style=&quot;font-size: 9px;&quot;&gt;User: vyos&lt;/font&gt;&lt;/div&gt;&lt;div&gt;&lt;font style=&quot;font-size: 9px;&quot;&gt;Pass: password&lt;/font&gt;&lt;/div&gt;" style="text;html=1;align=center;verticalAlign=middle;whiteSpace=wrap;rounded=0;" parent="1" vertex="1">
          <mxGeometry x="27.5" y="597.5" width="100" height="140" as="geometry" />
        </mxCell>
        <mxCell id="rV_EDdplLf0STSpB1xcs-22" value="&lt;span style=&quot;font-size: 10px;&quot;&gt;172.16.101.30/27&lt;/span&gt;" style="text;html=1;align=center;verticalAlign=middle;whiteSpace=wrap;rounded=0;rotation=0;" parent="1" vertex="1">
          <mxGeometry x="412.5" y="665" width="80.75" height="5" as="geometry" />
        </mxCell>
        <mxCell id="rV_EDdplLf0STSpB1xcs-31" value="" style="line;strokeWidth=3;direction=south;html=1;" parent="1" vertex="1">
          <mxGeometry x="407.5" y="660" width="5" height="50" as="geometry" />
        </mxCell>
        <mxCell id="rV_EDdplLf0STSpB1xcs-32" value="" style="line;strokeWidth=3;direction=south;html=1;rotation=-90;perimeterSpacing=3;" parent="1" vertex="1">
          <mxGeometry x="442.01" y="671.87" width="8" height="76.25" as="geometry" />
        </mxCell>
        <mxCell id="rV_EDdplLf0STSpB1xcs-34" value="" style="line;strokeWidth=2;direction=south;html=1;rotation=0;" parent="1" vertex="1">
          <mxGeometry x="424" y="710" width="1" height="20" as="geometry" />
        </mxCell>
        <mxCell id="rV_EDdplLf0STSpB1xcs-33" value="" style="shape=mxgraph.networks2.icon;aspect=fixed;fillColor=#EDEDED;strokeColor=#000000;gradientColor=#5B6163;network2IconShadow=1;network2bgFillColor=none;network2Icon=mxgraph.networks2.monitor;network2IconYOffset=-0.009;network2IconW=1;network2IconH=0.742;" parent="1" vertex="1">
          <mxGeometry x="400" y="725.46" width="46.57" height="34.54" as="geometry" />
        </mxCell>
        <mxCell id="rV_EDdplLf0STSpB1xcs-36" value="&lt;span style=&quot;font-size: 10px;&quot;&gt;DMZ Network&lt;/span&gt;" style="text;html=1;align=center;verticalAlign=middle;whiteSpace=wrap;rounded=0;rotation=0;" parent="1" vertex="1">
          <mxGeometry x="407.5" y="673.75" width="80.75" height="5" as="geometry" />
        </mxCell>
        <mxCell id="rV_EDdplLf0STSpB1xcs-38" value="REDNET" style="text;html=1;align=center;verticalAlign=middle;whiteSpace=wrap;rounded=0;" parent="1" vertex="1">
          <mxGeometry x="290" y="592.5" width="40" height="10" as="geometry" />
        </mxCell>
        <mxCell id="rV_EDdplLf0STSpB1xcs-39" value="&lt;font style=&quot;font-size: 6px;&quot;&gt;HN: red-dmz-host-1&lt;/font&gt;&lt;div&gt;&lt;font style=&quot;font-size: 6px;&quot;&gt;IP: 172.16.101.2&lt;/font&gt;&lt;/div&gt;&lt;div&gt;&lt;font style=&quot;font-size: 6px;&quot;&gt;Ports: 22&lt;/font&gt;&lt;/div&gt;" style="text;html=1;align=center;verticalAlign=middle;whiteSpace=wrap;rounded=0;" parent="1" vertex="1">
          <mxGeometry x="396.14" y="760" width="56.72" height="40" as="geometry" />
        </mxCell>
        <mxCell id="rV_EDdplLf0STSpB1xcs-40" value="e1" style="shape=ext;double=1;whiteSpace=wrap;html=1;aspect=fixed;" parent="1" vertex="1">
          <mxGeometry x="6" y="582.5" width="30" height="30" as="geometry" />
        </mxCell>
        <mxCell id="rV_EDdplLf0STSpB1xcs-43" value="172.16.120.18/29" style="text;html=1;align=center;verticalAlign=middle;whiteSpace=wrap;rounded=0;" parent="1" vertex="1">
          <mxGeometry x="-94" y="582.5" width="100" height="20" as="geometry" />
        </mxCell>
        <mxCell id="rV_EDdplLf0STSpB1xcs-44" value="172.16.120.17/29" style="text;html=1;align=center;verticalAlign=middle;whiteSpace=wrap;rounded=0;" parent="1" vertex="1">
          <mxGeometry x="-180" y="600" width="100" height="15" as="geometry" />
        </mxCell>
        <mxCell id="rV_EDdplLf0STSpB1xcs-45" value="REDNET" style="text;html=1;align=center;verticalAlign=middle;whiteSpace=wrap;rounded=0;" parent="1" vertex="1">
          <mxGeometry x="-40" y="600" width="40" height="10" as="geometry" />
        </mxCell>
        <mxCell id="rV_EDdplLf0STSpB1xcs-46" value="" style="rounded=1;whiteSpace=wrap;html=1;strokeWidth=2;fillWeight=4;hachureGap=8;hachureAngle=45;fillColor=light-dark(#1BA1E2,#6600CC);sketch=1;rotation=90;" parent="1" vertex="1">
          <mxGeometry x="-380" y="600" width="255" height="145" as="geometry" />
        </mxCell>
        <mxCell id="rV_EDdplLf0STSpB1xcs-47" value="&lt;font style=&quot;font-size: 9px;&quot;&gt;Router&lt;/font&gt;&lt;div&gt;&lt;font style=&quot;font-size: 9px;&quot;&gt;HN: RED-POP&lt;/font&gt;&lt;/div&gt;&lt;div&gt;&lt;span style=&quot;font-size: 9px; background-color: transparent; color: light-dark(rgb(0, 0, 0), rgb(255, 255, 255));&quot;&gt;Ports: 22&lt;/span&gt;&lt;/div&gt;&lt;div&gt;&lt;font style=&quot;font-size: 9px;&quot;&gt;User: vyos&lt;/font&gt;&lt;/div&gt;&lt;div&gt;&lt;font style=&quot;font-size: 9px;&quot;&gt;Pass: password&lt;/font&gt;&lt;/div&gt;" style="text;html=1;align=center;verticalAlign=middle;whiteSpace=wrap;rounded=0;" parent="1" vertex="1">
          <mxGeometry x="-302.5" y="602.5" width="100" height="140" as="geometry" />
        </mxCell>
        <mxCell id="rV_EDdplLf0STSpB1xcs-48" value="e0" style="shape=ext;double=1;whiteSpace=wrap;html=1;aspect=fixed;" parent="1" vertex="1">
          <mxGeometry x="-210" y="582.5" width="30" height="30" as="geometry" />
        </mxCell>
        <mxCell id="rV_EDdplLf0STSpB1xcs-49" value="INTERNET" style="text;html=1;align=center;verticalAlign=middle;whiteSpace=wrap;rounded=0;" parent="1" vertex="1">
          <mxGeometry x="160" y="580" width="45" height="10" as="geometry" />
        </mxCell>
        <mxCell id="rV_EDdplLf0STSpB1xcs-66" value="" style="endArrow=blockThin;html=1;bendable=1;rounded=0;endFill=1;endSize=4;edgeStyle=entityRelationEdgeStyle;startArrow=blockThin;startFill=1;startSize=4;jumpStyle=none;jumpSize=0;targetPerimeterSpacing=15;strokeWidth=1.5;strokeColor=light-dark(#000000,#FEFEFE);exitX=0.196;exitY=0.069;exitDx=0;exitDy=0;exitPerimeter=0;" parent="1" edge="1">
          <mxGeometry width="50" height="50" relative="1" as="geometry">
            <mxPoint x="-520" y="598.98" as="sourcePoint" />
            <mxPoint x="-310" y="598.75" as="targetPoint" />
          </mxGeometry>
        </mxCell>
        <mxCell id="rV_EDdplLf0STSpB1xcs-50" value="INTERNET" style="text;html=1;align=center;verticalAlign=middle;whiteSpace=wrap;rounded=0;" parent="1" vertex="1">
          <mxGeometry x="-170" y="587.5" width="45" height="10" as="geometry" />
        </mxCell>
        <mxCell id="rV_EDdplLf0STSpB1xcs-51" value="e2" style="shape=ext;double=1;whiteSpace=wrap;html=1;aspect=fixed;" parent="1" vertex="1">
          <mxGeometry x="-323" y="582.5" width="30" height="30" as="geometry" />
        </mxCell>
        <mxCell id="rV_EDdplLf0STSpB1xcs-52" value="e1" style="shape=ext;double=1;whiteSpace=wrap;html=1;aspect=fixed;" parent="1" vertex="1">
          <mxGeometry x="-270" y="770" width="30" height="30" as="geometry" />
        </mxCell>
        <mxCell id="rV_EDdplLf0STSpB1xcs-59" value="&lt;span style=&quot;font-size: 10px;&quot;&gt;172.16.182.126/27&lt;/span&gt;" style="text;html=1;align=center;verticalAlign=middle;whiteSpace=wrap;rounded=0;rotation=0;" parent="1" vertex="1">
          <mxGeometry x="-253.64" y="805" width="80.75" height="5" as="geometry" />
        </mxCell>
        <mxCell id="rV_EDdplLf0STSpB1xcs-60" value="" style="line;strokeWidth=3;direction=south;html=1;" parent="1" vertex="1">
          <mxGeometry x="-258.64" y="800" width="5" height="50" as="geometry" />
        </mxCell>
        <mxCell id="rV_EDdplLf0STSpB1xcs-61" value="" style="line;strokeWidth=3;direction=south;html=1;rotation=-90;perimeterSpacing=3;" parent="1" vertex="1">
          <mxGeometry x="-167.13" y="750.98" width="8" height="198.02" as="geometry" />
        </mxCell>
        <mxCell id="rV_EDdplLf0STSpB1xcs-62" value="" style="line;strokeWidth=2;direction=south;html=1;rotation=0;" parent="1" vertex="1">
          <mxGeometry x="-242.14" y="850" width="1" height="20" as="geometry" />
        </mxCell>
        <mxCell id="rV_EDdplLf0STSpB1xcs-63" value="" style="shape=mxgraph.networks2.icon;aspect=fixed;fillColor=#EDEDED;strokeColor=#000000;gradientColor=#5B6163;network2IconShadow=1;network2bgFillColor=none;network2Icon=mxgraph.networks2.monitor;network2IconYOffset=-0.009;network2IconW=1;network2IconH=0.742;" parent="1" vertex="1">
          <mxGeometry x="-266.14" y="865.46" width="46.57" height="34.54" as="geometry" />
        </mxCell>
        <mxCell id="rV_EDdplLf0STSpB1xcs-64" value="&lt;span style=&quot;font-size: 10px;&quot;&gt;REDHOSTS&lt;/span&gt;" style="text;html=1;align=center;verticalAlign=middle;whiteSpace=wrap;rounded=0;rotation=0;" parent="1" vertex="1">
          <mxGeometry x="-258.64" y="820" width="80.75" height="7.5" as="geometry" />
        </mxCell>
        <mxCell id="rV_EDdplLf0STSpB1xcs-65" value="&lt;div&gt;&lt;font style=&quot;font-size: 6px;&quot;&gt;T4&lt;/font&gt;&lt;/div&gt;&lt;font style=&quot;font-size: 6px;&quot;&gt;HN: red-host-1&lt;/font&gt;&lt;div&gt;&lt;font style=&quot;font-size: 6px;&quot;&gt;IP: 172.16.182.106&lt;/font&gt;&lt;/div&gt;&lt;div&gt;&lt;font style=&quot;font-size: 6px;&quot;&gt;Ports: 22&lt;/font&gt;&lt;/div&gt;" style="text;html=1;align=center;verticalAlign=middle;whiteSpace=wrap;rounded=0;" parent="1" vertex="1">
          <mxGeometry x="-270" y="900" width="56.72" height="50" as="geometry" />
        </mxCell>
        <mxCell id="rV_EDdplLf0STSpB1xcs-67" value="172.16.140.6/29" style="text;html=1;align=center;verticalAlign=middle;whiteSpace=wrap;rounded=0;" parent="1" vertex="1">
          <mxGeometry x="-424" y="583.75" width="100" height="20" as="geometry" />
        </mxCell>
        <mxCell id="rV_EDdplLf0STSpB1xcs-68" value="REDINTDMZ" style="text;html=1;align=center;verticalAlign=middle;whiteSpace=wrap;rounded=0;" parent="1" vertex="1">
          <mxGeometry x="-390" y="600" width="50" height="10" as="geometry" />
        </mxCell>
        <mxCell id="rV_EDdplLf0STSpB1xcs-69" value="" style="line;strokeWidth=2;direction=south;html=1;rotation=0;" parent="1" vertex="1">
          <mxGeometry x="-185.42" y="850" width="1" height="20" as="geometry" />
        </mxCell>
        <mxCell id="rV_EDdplLf0STSpB1xcs-70" value="" style="shape=mxgraph.networks2.icon;aspect=fixed;fillColor=#EDEDED;strokeColor=#000000;gradientColor=#5B6163;network2IconShadow=1;network2bgFillColor=none;network2Icon=mxgraph.networks2.monitor;network2IconYOffset=-0.009;network2IconW=1;network2IconH=0.742;" parent="1" vertex="1">
          <mxGeometry x="-209.42" y="865.46" width="46.57" height="34.54" as="geometry" />
        </mxCell>
        <mxCell id="rV_EDdplLf0STSpB1xcs-71" value="&lt;div&gt;&lt;font style=&quot;font-size: 6px;&quot;&gt;T2&lt;/font&gt;&lt;/div&gt;&lt;font style=&quot;font-size: 6px;&quot;&gt;HN: red-host-2?&lt;/font&gt;&lt;div&gt;&lt;font style=&quot;font-size: 6px;&quot;&gt;IP: 172.16.182.110&lt;/font&gt;&lt;/div&gt;&lt;div&gt;&lt;font style=&quot;font-size: 6px;&quot;&gt;Ports:&amp;nbsp;&lt;/font&gt;&lt;/div&gt;&lt;div&gt;&lt;font style=&quot;font-size: 6px;&quot;&gt;TCP: 22,80,1980, 1982, 1988, 1989&lt;/font&gt;&lt;/div&gt;&lt;div&gt;&lt;font style=&quot;font-size: 6px;&quot;&gt;UDP: 1984, 1989&lt;/font&gt;&lt;/div&gt;&lt;div&gt;&lt;font style=&quot;font-size: 6px;&quot;&gt;&lt;br&gt;&lt;/font&gt;&lt;/div&gt;" style="text;html=1;align=center;verticalAlign=middle;whiteSpace=wrap;rounded=0;" parent="1" vertex="1">
          <mxGeometry x="-213.28" y="900" width="56.72" height="110" as="geometry" />
        </mxCell>
        <mxCell id="rV_EDdplLf0STSpB1xcs-72" value="" style="line;strokeWidth=2;direction=south;html=1;rotation=0;" parent="1" vertex="1">
          <mxGeometry x="-130.5" y="850" width="1" height="20" as="geometry" />
        </mxCell>
        <mxCell id="rV_EDdplLf0STSpB1xcs-73" value="" style="shape=mxgraph.networks2.icon;aspect=fixed;fillColor=#EDEDED;strokeColor=#000000;gradientColor=#5B6163;network2IconShadow=1;network2bgFillColor=none;network2Icon=mxgraph.networks2.monitor;network2IconYOffset=-0.009;network2IconW=1;network2IconH=0.742;" parent="1" vertex="1">
          <mxGeometry x="-154.5" y="865.46" width="46.57" height="34.54" as="geometry" />
        </mxCell>
        <mxCell id="rV_EDdplLf0STSpB1xcs-74" value="&lt;div&gt;&lt;font style=&quot;font-size: 6px;&quot;&gt;T5&lt;/font&gt;&lt;/div&gt;&lt;font style=&quot;font-size: 6px;&quot;&gt;HN: red-host-3&lt;/font&gt;&lt;div&gt;&lt;font style=&quot;font-size: 6px;&quot;&gt;IP: 172.16.182.114&lt;/font&gt;&lt;/div&gt;&lt;div&gt;&lt;font style=&quot;font-size: 6px;&quot;&gt;Ports: 22&lt;/font&gt;&lt;/div&gt;" style="text;html=1;align=center;verticalAlign=middle;whiteSpace=wrap;rounded=0;" parent="1" vertex="1">
          <mxGeometry x="-158.36" y="900" width="56.72" height="50" as="geometry" />
        </mxCell>
        <mxCell id="rV_EDdplLf0STSpB1xcs-75" value="" style="line;strokeWidth=2;direction=south;html=1;rotation=0;" parent="1" vertex="1">
          <mxGeometry x="-73.77999999999999" y="850" width="1" height="20" as="geometry" />
        </mxCell>
        <mxCell id="rV_EDdplLf0STSpB1xcs-76" value="" style="shape=mxgraph.networks2.icon;aspect=fixed;fillColor=#EDEDED;strokeColor=#000000;gradientColor=#5B6163;network2IconShadow=1;network2bgFillColor=none;network2Icon=mxgraph.networks2.monitor;network2IconYOffset=-0.009;network2IconW=1;network2IconH=0.742;" parent="1" vertex="1">
          <mxGeometry x="-97.77999999999999" y="865.46" width="46.57" height="34.54" as="geometry" />
        </mxCell>
        <mxCell id="rV_EDdplLf0STSpB1xcs-77" value="&lt;div&gt;&lt;font style=&quot;font-size: 6px;&quot;&gt;T6&lt;/font&gt;&lt;/div&gt;&lt;font style=&quot;font-size: 6px;&quot;&gt;HN: red-host-4&lt;/font&gt;&lt;div&gt;&lt;font style=&quot;font-size: 6px;&quot;&gt;IP: 172.16.182.118&lt;/font&gt;&lt;/div&gt;&lt;div&gt;&lt;font style=&quot;font-size: 6px;&quot;&gt;Ports: 22&lt;/font&gt;&lt;/div&gt;" style="text;html=1;align=center;verticalAlign=middle;whiteSpace=wrap;rounded=0;" parent="1" vertex="1">
          <mxGeometry x="-101.64" y="900" width="56.72" height="50" as="geometry" />
        </mxCell>
        <mxCell id="9NE6xN3h0LuDKKkdftEm-3" value="172.16.140.5/29" style="text;html=1;align=center;verticalAlign=middle;whiteSpace=wrap;rounded=0;" parent="1" vertex="1">
          <mxGeometry x="-510" y="595" width="100" height="20" as="geometry" />
        </mxCell>
        <mxCell id="9NE6xN3h0LuDKKkdftEm-4" value="" style="rounded=1;whiteSpace=wrap;html=1;strokeWidth=2;fillWeight=4;hachureGap=8;hachureAngle=45;fillColor=light-dark(#1BA1E2,#6600CC);sketch=1;rotation=90;" parent="1" vertex="1">
          <mxGeometry x="-710" y="600" width="255" height="145" as="geometry" />
        </mxCell>
        <mxCell id="9NE6xN3h0LuDKKkdftEm-5" value="&lt;font style=&quot;font-size: 9px;&quot;&gt;Router&lt;/font&gt;&lt;div&gt;&lt;font style=&quot;font-size: 9px;&quot;&gt;HN: RED-POP2&lt;/font&gt;&lt;/div&gt;&lt;div&gt;&lt;span style=&quot;font-size: 9px; background-color: transparent; color: light-dark(rgb(0, 0, 0), rgb(255, 255, 255));&quot;&gt;Ports: 22&lt;/span&gt;&lt;/div&gt;&lt;div&gt;&lt;font style=&quot;font-size: 9px;&quot;&gt;User: vyos&lt;/font&gt;&lt;/div&gt;&lt;div&gt;&lt;font style=&quot;font-size: 9px;&quot;&gt;Pass: password&lt;/font&gt;&lt;/div&gt;" style="text;html=1;align=center;verticalAlign=middle;whiteSpace=wrap;rounded=0;" parent="1" vertex="1">
          <mxGeometry x="-632.5" y="602.5" width="100" height="140" as="geometry" />
        </mxCell>
        <mxCell id="9NE6xN3h0LuDKKkdftEm-6" value="e0" style="shape=ext;double=1;whiteSpace=wrap;html=1;aspect=fixed;" parent="1" vertex="1">
          <mxGeometry x="-540" y="583.75" width="30" height="30" as="geometry" />
        </mxCell>
        <mxCell id="9NE6xN3h0LuDKKkdftEm-7" value="REDINTDMZ" style="text;html=1;align=center;verticalAlign=middle;whiteSpace=wrap;rounded=0;" parent="1" vertex="1">
          <mxGeometry x="-500" y="587.5" width="50" height="10" as="geometry" />
        </mxCell>
        <mxCell id="9NE6xN3h0LuDKKkdftEm-8" value="e1" style="shape=ext;double=1;whiteSpace=wrap;html=1;aspect=fixed;" parent="1" vertex="1">
          <mxGeometry x="-597.5" y="770" width="30" height="30" as="geometry" />
        </mxCell>
        <mxCell id="9NE6xN3h0LuDKKkdftEm-9" value="&lt;span style=&quot;font-size: 10px;&quot;&gt;172.16.140.62/27&lt;/span&gt;" style="text;html=1;align=center;verticalAlign=middle;whiteSpace=wrap;rounded=0;rotation=0;" parent="1" vertex="1">
          <mxGeometry x="-577.61" y="805" width="80.75" height="5" as="geometry" />
        </mxCell>
        <mxCell id="9NE6xN3h0LuDKKkdftEm-10" value="" style="line;strokeWidth=2;direction=south;html=1;rotation=0;" parent="1" vertex="1">
          <mxGeometry x="-566.1" y="845" width="1" height="20" as="geometry" />
        </mxCell>
        <mxCell id="9NE6xN3h0LuDKKkdftEm-11" value="" style="shape=mxgraph.networks2.icon;aspect=fixed;fillColor=#EDEDED;strokeColor=#000000;gradientColor=#5B6163;network2IconShadow=1;network2bgFillColor=none;network2Icon=mxgraph.networks2.monitor;network2IconYOffset=-0.009;network2IconW=1;network2IconH=0.742;" parent="1" vertex="1">
          <mxGeometry x="-590.1" y="860.46" width="46.57" height="34.54" as="geometry" />
        </mxCell>
        <mxCell id="9NE6xN3h0LuDKKkdftEm-12" value="&lt;span style=&quot;font-size: 10px;&quot;&gt;REDINTDMZ2&lt;/span&gt;" style="text;html=1;align=center;verticalAlign=middle;whiteSpace=wrap;rounded=0;rotation=0;" parent="1" vertex="1">
          <mxGeometry x="-584.03" y="818.39" width="80.75" height="7.5" as="geometry" />
        </mxCell>
        <mxCell id="9NE6xN3h0LuDKKkdftEm-13" value="&lt;div&gt;&lt;font style=&quot;font-size: 5px;&quot;&gt;T3&lt;/font&gt;&lt;/div&gt;&lt;font style=&quot;font-size: 5px;&quot;&gt;HN: red-host-1&lt;/font&gt;&lt;div&gt;&lt;font style=&quot;font-size: 5px;&quot;&gt;IP: 172.16.140.33&lt;/font&gt;&lt;/div&gt;&lt;div&gt;&lt;font style=&quot;font-size: 5px;&quot;&gt;Ports: 22,80,2800&lt;/font&gt;&lt;/div&gt;&lt;div&gt;&lt;font style=&quot;font-size: 5px;&quot;&gt;&lt;font style=&quot;&quot;&gt;Tcp:&lt;/font&gt;&lt;font style=&quot;&quot;&gt; 2305,2800,2828&lt;/font&gt;&lt;/font&gt;&lt;/div&gt;&lt;div&gt;&lt;font style=&quot;&quot;&gt;&lt;font style=&quot;font-size: 5px;&quot;&gt;udp: 2000, 2011, 2200, 2250, 2999&lt;/font&gt;&lt;/font&gt;&lt;/div&gt;" style="text;html=1;align=center;verticalAlign=middle;whiteSpace=wrap;rounded=0;" parent="1" vertex="1">
          <mxGeometry x="-593.96" y="895" width="56.72" height="105" as="geometry" />
        </mxCell>
        <mxCell id="9NE6xN3h0LuDKKkdftEm-14" value="" style="line;strokeWidth=2;direction=south;html=1;rotation=0;" parent="1" vertex="1">
          <mxGeometry x="-509.37999999999994" y="845" width="1" height="20" as="geometry" />
        </mxCell>
        <mxCell id="9NE6xN3h0LuDKKkdftEm-15" value="" style="shape=mxgraph.networks2.icon;aspect=fixed;fillColor=#EDEDED;strokeColor=#000000;gradientColor=#5B6163;network2IconShadow=1;network2bgFillColor=none;network2Icon=mxgraph.networks2.monitor;network2IconYOffset=-0.009;network2IconW=1;network2IconH=0.742;" parent="1" vertex="1">
          <mxGeometry x="-533.38" y="860.46" width="46.57" height="34.54" as="geometry" />
        </mxCell>
        <mxCell id="9NE6xN3h0LuDKKkdftEm-16" value="&lt;div&gt;&lt;font style=&quot;font-size: 6px;&quot;&gt;T7&lt;/font&gt;&lt;/div&gt;&lt;font style=&quot;font-size: 6px;&quot;&gt;HN: red-host-2?&lt;/font&gt;&lt;div&gt;&lt;font style=&quot;font-size: 6px;&quot;&gt;IP: 172.16.140.35&lt;/font&gt;&lt;/div&gt;&lt;div&gt;&lt;font style=&quot;font-size: 6px;&quot;&gt;Ports: 22&lt;/font&gt;&lt;/div&gt;&lt;div&gt;&lt;font style=&quot;font-size: 6px;&quot;&gt;&lt;br&gt;&lt;/font&gt;&lt;/div&gt;" style="text;html=1;align=center;verticalAlign=middle;whiteSpace=wrap;rounded=0;" parent="1" vertex="1">
          <mxGeometry x="-537.24" y="895" width="56.72" height="65" as="geometry" />
        </mxCell>
        <mxCell id="9NE6xN3h0LuDKKkdftEm-17" value="" style="line;strokeWidth=3;direction=south;html=1;" parent="1" vertex="1">
          <mxGeometry x="-582.61" y="797.14" width="5" height="50" as="geometry" />
        </mxCell>
        <mxCell id="9NE6xN3h0LuDKKkdftEm-18" value="" style="line;strokeWidth=3;direction=south;html=1;rotation=-90;perimeterSpacing=3;" parent="1" vertex="1">
          <mxGeometry x="-534.17" y="791.19" width="8" height="111.88" as="geometry" />
        </mxCell>
        <mxCell id="NUr2wXwa7sHBsrDPbHHv-1" value="" style="shape=mxgraph.networks2.icon;aspect=fixed;fillColor=#EDEDED;strokeColor=#000000;gradientColor=#5B6163;network2IconShadow=1;network2bgFillColor=none;network2Icon=mxgraph.networks2.monitor;network2IconYOffset=-0.009;network2IconW=1;network2IconH=0.742;" vertex="1" parent="1">
          <mxGeometry x="673.86" y="600" width="46.57" height="34.54" as="geometry" />
        </mxCell>
        <mxCell id="NUr2wXwa7sHBsrDPbHHv-2" value="&lt;div&gt;&lt;font style=&quot;font-size: 6px;&quot;&gt;T1&lt;/font&gt;&lt;/div&gt;&lt;font style=&quot;font-size: 6px;&quot;&gt;HN: networking-ctfd-2.server.vta&lt;/font&gt;&lt;div&gt;&lt;font style=&quot;font-size: 6px;&quot;&gt;IP: 10.50.20.11&lt;/font&gt;&lt;/div&gt;&lt;div&gt;&lt;font style=&quot;font-size: 6px;&quot;&gt;Ports: 53&lt;/font&gt;&lt;/div&gt;" style="text;html=1;align=center;verticalAlign=middle;whiteSpace=wrap;rounded=0;" vertex="1" parent="1">
          <mxGeometry x="670" y="634.54" width="56.72" height="65.46" as="geometry" />
        </mxCell>
      </root>
    </mxGraphModel>
  </diagram>
</mxfile>
